# Blender 4.4.3
# www.blender.org
mtllib box.mtl
o box
v -1.709461 -0.000000 0.983366
v -1.709461 2.000000 0.983366
v -1.709461 0.000000 -1.016634
v -1.709461 2.000000 -1.016634
v 1.709460 -0.000000 0.983366
v 1.709460 2.000000 0.983366
v 1.709460 0.000000 -1.016634
v 1.709460 2.000000 -1.016634
v -1.709461 0.000000 -1.016634
v -1.709461 -0.000000 0.983366
v -1.709461 1.333333 0.983366
v -1.709461 2.000000 0.983366
v -1.709461 2.000000 -1.016634
v -1.709461 0.666667 -1.016634
v 1.709460 0.000000 -1.016634
v 1.709460 2.000000 -1.016634
v 1.709460 0.666667 -1.016634
v 1.709460 -0.000000 0.983366
v 1.709460 2.000000 0.983366
v 1.709460 0.666667 0.983366
v -1.709461 0.666667 0.983366
v -1.709461 1.333333 -1.016634
v 1.709460 1.333333 -1.016634
v 1.709460 1.333333 0.983366
v -1.709461 0.000000 -1.016634
v -1.709461 -0.000000 0.983366
v -1.797124 1.998250 0.962732
v -1.709461 2.000000 0.983366
v -1.734437 1.998250 -1.103160
v -1.709461 2.000000 -1.016634
v 1.709460 0.000000 -1.016634
v 1.797123 1.998250 -0.996000
v 1.709460 2.000000 -1.016634
v 1.709460 -0.000000 0.983366
v 1.734437 1.998250 1.069892
v 1.709460 2.000000 0.983366
v -1.709461 2.000000 0.983366
v -1.709461 2.000000 0.983366
v -1.709461 2.000000 0.983366
v -1.709461 0.000000 -1.016634
v -1.709461 0.000000 -1.016634
v -1.709461 0.000000 -1.016634
v 1.709460 2.000000 0.983366
v 1.709460 2.000000 0.983366
v 1.709460 2.000000 0.983366
v -1.709461 -0.000000 0.983366
v -1.709461 -0.000000 0.983366
v -1.709461 -0.000000 0.983366
v -1.709461 2.000000 -1.016634
v -1.709461 2.000000 -1.016634
v -1.709461 2.000000 -1.016634
v 1.709460 2.000000 -1.016634
v 1.709460 2.000000 -1.016634
v 1.709460 2.000000 -1.016634
v 1.709460 -0.000000 0.983366
v 1.709460 -0.000000 0.983366
v 1.709460 -0.000000 0.983366
v 1.709460 0.000000 -1.016634
v 1.709460 0.000000 -1.016634
v 1.709460 0.000000 -1.016634
v -1.709461 1.333333 0.983366
v -1.709461 1.333333 0.983366
v -1.709461 1.333333 0.983366
v -1.709461 0.666667 -1.016634
v -1.709461 0.666667 -1.016634
v -1.709461 0.666667 -1.016634
v 1.709460 0.666667 -1.016634
v 1.709460 0.666667 -1.016634
v 1.709460 0.666667 -1.016634
v 1.709460 0.666667 0.983366
v 1.709460 0.666667 0.983366
v 1.709460 0.666667 0.983366
v -1.709461 0.666667 0.983366
v -1.709461 0.666667 0.983366
v -1.709461 0.666667 0.983366
v -1.709461 1.333333 -1.016634
v -1.709461 1.333333 -1.016634
v -1.709461 1.333333 -1.016634
v 1.709460 1.333333 -1.016634
v 1.709460 1.333333 -1.016634
v 1.709460 1.333333 -1.016634
v 1.709460 1.333333 0.983366
v 1.709460 1.333333 0.983366
v 1.709460 1.333333 0.983366
v 1.838270 0.666667 -1.016634
v 1.838270 0.000000 -1.016634
v 1.794158 1.333333 -1.016634
v 1.794158 0.666667 -1.016634
v 1.838270 2.000000 0.983366
v 1.838270 1.333333 0.983366
v 1.838270 0.666667 0.983366
v 1.838270 1.333333 -1.016634
v 1.838270 2.000000 -1.016634
v 1.838270 -0.000000 0.983366
v 1.794158 0.666667 0.983366
v 1.794158 1.333333 0.983366
v 1.709460 0.666667 1.016635
v 1.709460 -0.000000 1.016635
v -1.709461 -0.000000 1.016635
v -1.709461 0.666667 1.016635
v 1.709460 1.333333 1.107943
v -1.709461 1.333333 1.107943
v -1.709461 2.000000 1.107943
v 1.709460 2.000000 1.107943
v -1.797124 2.106452 0.962732
v -1.734437 2.106452 -1.103160
v 1.797123 2.106452 -0.996000
v 1.734437 2.106452 1.069892
v 1.709460 2.000000 -1.117204
v 1.709460 1.333333 -1.117204
v -1.709461 1.333333 -1.117204
v -1.709461 2.000000 -1.117204
v -1.709461 1.333333 -1.158795
v -1.709461 0.666667 -1.158795
v 1.709460 0.666667 -1.158795
v 1.709460 1.333333 -1.158795
v -1.709461 0.666667 -1.035463
v -1.709461 0.000000 -1.035464
v 1.709460 0.666667 -1.035463
v 1.709460 0.000000 -1.035464
v -1.787278 1.333333 0.983366
v -1.787278 2.000000 0.983366
v -1.787278 2.000000 -1.016634
v -1.787278 1.333333 -1.016634
v -1.789153 0.666667 0.983366
v -1.789153 0.666667 -1.016634
v -1.789153 0.000000 -1.016634
v -1.789153 -0.000000 0.983366
v -1.762942 0.666667 0.983366
v -1.762942 1.333333 0.983366
v -1.762942 1.333333 -1.016634
v -1.762942 0.666667 -1.016634
vn -0.0000 -1.0000 -0.0000
vn -0.0000 1.0000 -0.0000
vn 1.0000 -0.0000 -0.0000
vn -0.0000 -0.0000 1.0000
vn -1.0000 -0.0000 -0.0000
vn -0.0000 -0.0000 -1.0000
vn 0.0303 -0.0000 -0.9995
vn -0.9995 -0.0000 -0.0303
vn -0.0303 -0.0000 0.9995
vn 0.9995 -0.0000 0.0303
vt 0.000000 0.001022
vt 0.101684 0.001022
vt 0.101684 0.174846
vt 0.000000 0.174846
vt 0.065597 0.174846
vt 0.334561 0.267619
vt 0.334561 0.169224
vt 0.367360 0.169224
vt 0.367360 0.267619
vt 0.301763 0.169224
vt 0.301763 0.337426
vt 0.268964 0.337426
vt 0.268964 0.169224
vt 0.400158 0.169224
vt 0.400158 0.267619
vt 0.268964 0.169224
vt 0.236166 0.337426
vt 0.236166 0.169224
vt 0.065597 0.343048
vt 0.032798 0.343048
vt 0.032798 0.174846
vt 0.032798 0.343048
vt 0.000000 0.343048
vt 0.000000 0.174846
vt 0.400158 0.366014
vt 0.367359 0.366014
vt 0.367359 0.267619
vt 0.236166 0.337427
vt 0.236166 0.435821
vt 0.203367 0.435821
vt 0.203367 0.337426
vt 0.334561 0.169224
vt 0.334561 0.337426
vt 0.098395 0.174846
vt 0.098395 0.343048
vt 0.065597 0.343048
vt 0.065597 0.174846
vt 0.334561 0.366014
vt 0.334561 0.267619
vt 0.367359 0.267619
vt 0.432956 0.267619
vt 0.432956 0.366014
vt 0.334561 0.001022
vt 0.367359 0.001022
vt 0.367359 0.099417
vt 0.334561 0.099417
vt 0.400158 0.001022
vt 0.400158 0.099417
vt 0.268964 0.435821
vt 0.347892 0.099417
vt 0.347892 0.132215
vt 0.341555 0.132215
vt 0.341555 0.099417
vt 0.308100 0.435822
vt 0.308100 0.337427
vt 0.314437 0.337427
vt 0.314437 0.435822
vt 0.341555 0.165013
vt 0.341555 0.132215
vt 0.347892 0.165013
vt 0.004167 0.343048
vt 0.004167 0.441443
vt 0.000000 0.441443
vt 0.320774 0.337427
vt 0.320774 0.435822
vt 0.308100 0.337426
vt 0.308100 0.435822
vt 0.301763 0.435822
vt 0.347892 0.165013
vt 0.354229 0.132215
vt 0.354229 0.165013
vt 0.327111 0.337427
vt 0.327111 0.435822
vt 0.008334 0.343048
vt 0.008334 0.441443
vt 0.369473 0.099417
vt 0.369473 0.132215
vt 0.365306 0.132215
vt 0.365306 0.099417
vt 0.365306 0.165013
vt 0.369473 0.165013
vt 0.354229 0.099417
vt 0.347892 0.132215
vt 0.347892 0.099417
vt 0.334561 0.169224
vt 0.301763 0.169224
vt 0.301763 0.001022
vt 0.334561 0.001022
vt 0.203367 0.337427
vt 0.203367 0.169224
vt 0.360358 0.099417
vt 0.360358 0.132215
vt 0.332434 0.370225
vt 0.332434 0.337427
vt 0.334071 0.337427
vt 0.334071 0.370225
vt 0.457182 0.169224
vt 0.457181 0.337427
vt 0.455545 0.337427
vt 0.455545 0.169224
vt 0.360358 0.165013
vt 0.043650 0.343048
vt 0.043650 0.375847
vt 0.042013 0.375847
vt 0.042013 0.343048
vt 0.446079 0.001022
vt 0.446079 0.169224
vt 0.439950 0.169224
vt 0.439950 0.001022
vt 0.452664 0.001022
vt 0.452664 0.169224
vt 0.451027 0.169224
vt 0.451027 0.001022
vt 0.202919 0.174846
vt 0.202919 0.343049
vt 0.196790 0.343049
vt 0.196790 0.174846
vt 0.203367 0.001022
vt 0.203367 0.174846
vt 0.101684 0.174846
vt 0.101684 0.001022
vt 0.445274 0.169224
vt 0.445274 0.342981
vt 0.439950 0.342981
vt 0.439950 0.169224
vt 0.332434 0.439071
vt 0.327111 0.439071
vt 0.450597 0.169224
vt 0.450597 0.342980
vt 0.445274 0.342980
vt 0.445274 0.169224
vt 0.438280 0.337427
vt 0.438280 0.439071
vt 0.432956 0.439071
vt 0.432956 0.337427
vt 0.163992 0.343048
vt 0.131194 0.343048
vt 0.131194 0.174846
vt 0.163992 0.174846
vt 0.365306 0.165013
vt 0.451027 0.001022
vt 0.451027 0.169224
vt 0.450597 0.337427
vt 0.450597 0.169224
vt 0.455545 0.169224
vt 0.455545 0.337427
vt 0.196790 0.343048
vt 0.196790 0.174846
vt 0.334561 0.132215
vt 0.334561 0.099417
vt 0.432956 0.169224
vt 0.432956 0.001022
vt 0.334561 0.165013
vt 0.334561 0.132215
vt 0.341555 0.165013
vt 0.432956 0.337427
vt 0.439950 0.169224
vt 0.439950 0.337427
vt 0.098395 0.343048
vt 0.098395 0.174846
vt 0.457182 0.337427
vt 0.457182 0.169224
vt 0.458108 0.169224
vt 0.458108 0.337427
vt 0.453590 0.001022
vt 0.453590 0.169224
vt 0.373394 0.132215
vt 0.373394 0.099417
vt 0.374320 0.099417
vt 0.374320 0.132215
vt 0.374320 0.165013
vt 0.373394 0.165013
vt 0.432956 0.099417
vt 0.432956 0.001022
vt 0.016175 0.441443
vt 0.016175 0.343048
vt 0.020004 0.343048
vt 0.020004 0.441443
vt 0.036751 0.343048
vt 0.036751 0.375847
vt 0.032923 0.375847
vt 0.032923 0.343048
vt 0.029094 0.375847
vt 0.029094 0.343048
vt 0.032923 0.375847
vt 0.023832 0.343048
vt 0.023832 0.441443
vt 0.432956 0.169224
vt 0.012254 0.343048
vt 0.012254 0.441443
vt 0.301763 0.435821
vt 0.268964 0.337427
vt 0.301763 0.337427
vt 0.026463 0.343048
vt 0.026463 0.441443
vt 0.023832 0.441443
vt 0.023832 0.343048
vt 0.039382 0.343048
vt 0.039382 0.375847
vt 0.026463 0.441443
vt 0.026463 0.343048
vt 0.029094 0.343048
vt 0.029094 0.441443
vt 0.042013 0.343048
vt 0.042013 0.375847
vt 0.039382 0.375847
vt 0.039382 0.343048
s 0
usemtl objs
f 32/1/1 35/2/1 27/3/1 29/4/1
f 25/5/2 26/5/2 46/5/2 40/5/2
f 36/5/2 28/5/2 37/5/2 43/5/2
f 2/5/2 30/5/2 49/5/2 39/5/2
f 31/5/2 3/5/2 42/5/2 58/5/2
f 33/5/2 6/5/2 44/5/2 52/5/2
f 1/5/2 34/5/2 55/5/2 47/5/2
f 4/5/2 8/5/2 53/5/2 50/5/2
f 5/5/2 7/5/2 60/5/2 56/5/2
f 61/6/3 76/7/3 51/8/3 38/9/3
f 78/10/4 79/11/4 54/12/4 13/13/4
f 81/9/5 82/8/5 45/14/5 16/15/5
f 84/16/6 63/12/6 12/17/6 19/18/6
f 57/5/6 48/19/6 73/20/6 70/21/6
f 71/22/4 83/23/4 62/24/4 74/21/4
f 59/15/5 18/25/5 72/26/5 67/27/5
f 68/28/5 20/29/5 24/30/5 80/31/5
f 41/32/4 15/33/4 69/11/4 64/10/4
f 65/34/4 17/35/4 23/36/4 77/37/4
f 10/38/3 9/39/3 66/40/3 75/26/3
f 21/25/3 14/15/3 22/41/3 11/42/3
f 92/43/3 93/44/3 89/45/3 90/46/3
f 86/44/3 85/47/3 91/48/3 94/45/3
f 88/28/3 87/12/3 96/49/3 95/29/3
f 45/50/4 82/51/4 90/52/4 89/53/4
f 67/54/2 72/55/2 91/56/2 85/57/2
f 81/58/6 16/59/6 93/51/6 92/60/6
f 20/61/1 68/62/1 88/63/1 95/23/1
f 16/57/2 45/56/2 89/64/2 93/65/2
f 18/66/1 59/67/1 86/68/1 94/11/1
f 59/69/6 67/51/6 85/70/6 86/71/6
f 82/72/1 81/73/1 92/65/1 90/64/1
f 80/62/2 24/61/2 96/74/2 87/75/2
f 24/76/4 20/77/4 95/78/4 96/79/4
f 68/80/6 80/78/6 87/77/6 88/81/6
f 72/82/4 18/70/4 94/83/4 91/84/4
f 101/85/4 104/86/4 103/87/4 102/88/4
f 98/28/4 97/89/4 100/90/4 99/18/4
f 12/91/5 63/92/5 102/70/5 103/82/5
f 57/93/3 70/94/3 97/95/3 98/96/3
f 70/97/2 73/98/2 100/99/2 97/100/2
f 84/71/3 19/70/3 104/92/3 101/101/3
f 73/102/5 48/103/5 99/104/5 100/105/5
f 63/106/1 84/107/1 101/108/1 102/109/1
f 48/110/1 57/111/1 98/112/1 99/113/1
f 19/114/2 12/115/2 103/116/2 104/117/2
f 107/118/2 106/119/2 105/120/2 108/121/2
f 32/122/7 29/123/7 106/124/7 107/125/7
f 29/94/8 27/126/8 105/127/8 106/72/8
f 27/128/9 35/129/9 108/130/9 105/131/9
f 35/132/10 32/133/10 107/134/10 108/135/10
f 111/136/6 112/137/6 109/138/6 110/139/6
f 78/92/5 13/91/5 112/79/5 111/78/5
f 54/78/3 79/140/3 110/101/3 109/92/3
f 79/107/1 78/106/1 111/141/1 110/142/1
f 13/143/2 54/144/2 109/145/2 112/146/2
f 114/147/6 113/136/6 116/139/6 115/148/6
f 23/53/3 17/52/3 115/149/3 116/150/3
f 17/151/1 65/152/1 114/109/1 115/108/1
f 65/153/5 77/154/5 113/52/5 114/155/5
f 77/156/2 23/151/2 116/157/2 113/158/2
f 118/137/6 117/159/6 119/160/6 120/138/6
f 64/161/2 69/162/2 119/163/2 117/164/2
f 15/111/1 41/110/1 118/165/1 120/166/1
f 41/167/5 64/168/5 117/169/5 118/170/5
f 69/170/3 15/171/3 120/172/3 119/167/3
f 121/173/5 122/48/5 123/47/5 124/174/5
f 76/175/1 61/176/1 121/177/1 124/178/1
f 51/179/6 76/180/6 124/181/6 123/182/6
f 61/183/4 38/184/4 122/182/4 121/185/4
f 38/186/2 51/187/2 123/178/2 122/177/2
f 128/41/5 125/15/5 126/14/5 127/188/5
f 10/77/4 75/76/4 125/168/4 128/167/4
f 9/75/1 10/74/1 128/189/1 127/190/1
f 75/176/2 66/175/2 126/190/2 125/189/2
f 66/167/6 9/172/6 127/81/6 126/77/6
f 129/191/5 130/49/5 131/192/5 132/193/5
f 11/194/2 22/195/2 131/196/2 130/197/2
f 21/180/4 11/179/4 130/198/4 129/199/4
f 14/200/1 21/201/1 129/202/1 132/203/1
f 22/204/6 14/205/6 132/206/6 131/207/6
