# Blender 4.4.3
# www.blender.org
mtllib crystal1.mtl
o Crystal_005
v -0.174632 0.293022 -0.255188
v -0.270549 0.290626 -0.029284
v 0.119262 -0.064646 0.277304
v 0.165793 -0.296025 0.283770
v -0.013249 0.702626 -0.017060
v 0.135272 0.561432 0.055283
v -0.202582 0.456055 0.051865
v -0.138732 0.037277 0.299525
v -0.128505 -0.672697 -0.072031
v -0.152834 0.306292 0.172536
v 0.031798 -0.132544 -0.376481
v -0.311716 -0.144800 0.169003
v 0.110072 0.231027 0.162417
v 0.298474 0.121790 0.008732
v 0.340743 -0.028030 -0.137399
v 0.166374 -0.676784 0.018561
v -0.363437 -0.246189 -0.201798
v 0.365821 -0.321940 -0.078571
v -0.156624 -0.188626 0.336383
v -0.073639 0.640767 -0.047569
v -0.005119 -0.515421 -0.345566
v 0.303243 -0.323835 -0.304277
v 0.128202 0.503234 -0.137628
v -0.173436 -0.532610 0.167463
vn -0.0281 0.5184 -0.8547
vn 0.6988 0.2778 0.6592
vn 0.8165 -0.3291 0.4743
vn -0.9853 0.1385 0.0996
vn -0.7487 0.6314 0.2019
vn 0.7609 0.1705 0.6261
vn -0.8361 0.2909 0.4651
vn 0.8681 0.1676 0.4672
vn -0.8864 0.2734 -0.3735
vn -0.8621 0.1118 0.4942
vn 0.9230 0.3577 -0.1417
vn -0.4171 0.0562 -0.9071
vn -0.7391 0.2555 0.6232
vn 0.4803 0.3840 -0.7886
vn 0.9632 0.0287 -0.2673
vn -0.8519 0.4667 -0.2378
vn -0.8841 -0.4563 0.1010
vn 0.1217 0.2977 0.9469
vn 0.1330 0.3308 -0.9343
vn 0.9364 -0.0711 0.3437
vn 0.6819 0.1780 0.7094
vn -0.0218 0.4377 0.8989
vn 0.4090 0.1153 0.9052
vn 0.1569 0.4283 0.8899
vn 0.7265 0.6501 -0.2227
vn -0.7006 0.1686 0.6933
vn -0.3727 0.5040 0.7792
vn -0.8255 0.4462 -0.3458
vn 0.9227 0.3691 -0.1115
vn -0.1583 -0.8650 0.4762
vn -0.0577 0.4863 -0.8719
vn -0.9190 -0.3285 0.2180
vn 0.1912 -0.0973 -0.9767
vn -0.3953 -0.0360 -0.9178
vn 0.5496 0.2195 -0.8061
vn -0.7408 -0.2666 0.6166
vn -0.6248 -0.5211 -0.5814
vn 0.1263 -0.8835 -0.4510
vn 0.0363 0.3629 0.9311
vn 0.8223 -0.5234 -0.2236
vn -0.0003 -0.4408 0.8976
vn 0.1164 -0.5675 0.8151
vn 0.4961 -0.6829 -0.5363
vn 0.1814 0.0639 0.9813
vt 0.174696 0.643196
vt 0.230079 0.558043
vt 0.261930 0.605095
vt 0.737226 0.098736
vt 0.738373 0.158504
vt 0.686836 0.135296
vt 0.668410 0.245651
vt 0.727347 0.211741
vt 0.720525 0.322321
vt 0.810593 0.583250
vt 0.718619 0.564851
vt 0.763030 0.456320
vt 0.739086 0.414342
vt 0.742885 0.338892
vt 0.754196 0.357766
vt 0.707052 0.447204
vt 0.672679 0.181870
vt 0.810593 0.441244
vt 0.284139 0.584593
vt 0.300401 0.700186
vt 0.677785 0.648908
vt 0.761640 0.726125
vt 0.668410 0.757581
vt 0.675924 0.510774
vt 0.194057 0.760467
vt 0.290450 0.743565
vt 0.255187 0.818267
vt 0.818479 0.837148
vt 0.826468 0.773647
vt 0.870685 0.814669
vt 0.720913 0.870830
vt 0.668410 0.873918
vt 0.802154 0.082350
vt 0.727779 0.029947
vt 0.525585 0.436617
vt 0.554301 0.433855
vt 0.554301 0.561128
vt 0.762256 0.003943
vt 0.802386 0.134863
vt 0.808033 0.184852
vt 0.248881 0.545424
vt 0.668410 0.565071
vt 0.808033 0.279152
vt 0.790708 0.331005
vt 0.709991 0.641022
vt 0.174696 0.848860
vt 0.774401 0.806162
vt 0.922039 0.903961
vt 0.891374 0.960373
vt 0.818480 0.925769
s 1
usemtl Crystal005Mat
f 1/1/1 20/2/1 23/3/1
f 13/4/2 3/5/2 14/6/2
f 18/7/3 4/8/3 16/9/3
f 17/10/4 12/11/4 2/12/4
f 7/13/5 5/14/5 20/15/5
f 4/8/6 14/6/6 3/5/6
f 10/16/7 2/12/7 12/11/7
f 15/17/8 4/8/8 18/7/8
f 17/10/9 2/12/9 1/18/9
f 10/16/10 7/13/10 2/12/10
f 6/19/11 14/20/11 23/3/11
f 1/21/12 11/22/12 17/23/12
f 10/16/13 12/11/13 8/24/13
f 11/25/14 15/26/14 22/27/14
f 22/28/15 15/29/15 18/30/15
f 2/12/16 7/13/16 20/15/16
f 9/31/17 24/32/17 17/23/17
f 10/33/18 13/4/18 6/34/18
f 1/1/19 23/3/19 11/25/19
f 15/35/20 14/36/20 4/37/20
f 6/34/21 13/4/21 14/6/21
f 5/38/22 10/33/22 6/34/22
f 13/4/23 8/39/23 19/40/23
f 13/4/24 10/33/24 8/39/24
f 23/3/25 5/41/25 6/19/25
f 8/24/26 12/11/26 19/42/26
f 5/14/27 7/13/27 10/16/27
f 1/18/28 2/12/28 20/15/28
f 14/20/29 15/26/29 23/3/29
f 24/43/30 9/44/30 16/9/30
f 20/2/31 5/41/31 23/3/31
f 24/45/32 12/11/32 17/10/32
f 21/46/33 11/25/33 22/27/33
f 17/23/34 11/22/34 21/47/34
f 23/3/35 15/26/35 11/25/35
f 12/11/36 24/45/36 19/42/36
f 17/23/37 21/47/37 9/31/37
f 16/48/38 9/49/38 21/50/38
f 3/5/39 13/4/39 19/40/39
f 18/30/40 16/48/40 22/28/40
f 24/43/41 4/8/41 19/40/41
f 16/9/42 4/8/42 24/43/42
f 21/50/43 22/28/43 16/48/43
f 4/8/44 3/5/44 19/40/44
