# Blender 4.4.3
# www.blender.org
mtllib master tent.mtl
o tent.001
v 4.186419 2.897377 1.150196
v 4.186419 0.007607 0.494754
v 4.186419 2.897377 2.476877
v 4.186419 0.007607 3.132319
v -3.232893 3.815051 0.709265
v -3.711848 0.007607 -1.774630
v -3.232893 3.815051 2.917809
v -3.711848 0.007607 5.401703
v 4.186419 5.566400 1.906890
v -3.078862 5.566400 1.906890
v 4.186419 5.566400 1.720183
v -3.078862 5.566400 1.720183
v 4.186419 3.815051 0.709265
v 4.186419 0.007607 -1.774630
v 4.186419 3.815051 2.917809
v 4.186419 0.007607 5.401703
v 6.303017 1.677154 0.622132
v 6.303017 1.677154 2.865871
v 5.473069 1.963676 0.844040
v 4.503216 2.522746 1.065948
v 4.503217 2.522745 2.535727
v 5.473069 1.963676 2.700799
v 4.186419 4.668441 2.466164
v -3.155878 4.668441 2.466164
v -3.155878 4.668441 1.160910
v 4.186419 4.668441 1.160910
v 4.186419 5.551053 2.110820
v -3.078862 5.551053 2.110820
v -3.078862 5.551053 1.516253
v 4.186419 5.551053 1.516253
v 4.186419 4.697662 2.562465
v 4.186419 4.697662 1.064609
v -3.155878 4.697662 2.562465
v -3.155878 4.697662 1.064609
v 4.360496 5.331965 1.768928
v 4.360496 5.331965 1.858145
v 4.360496 4.902876 2.125395
v 4.360496 4.902876 1.501679
v -3.224121 5.380252 1.865259
v -3.224121 5.380252 1.761814
v -3.266792 4.882737 2.175125
v -3.266792 4.882737 1.451949
v 4.186419 2.895991 1.150196
v 4.186419 2.895991 2.476877
v 6.303017 1.675768 0.622132
v 6.303017 1.675768 2.865871
v 5.473069 1.962291 0.844040
v 4.503216 2.521360 1.065948
v 4.503217 2.521359 2.535727
v 5.473069 1.962290 2.700799
vn 1.0000 -0.0000 -0.0000
vn -0.0000 0.5464 0.8375
vn -0.0000 0.5076 0.8616
vn -0.0000 0.5099 0.8602
vn -0.9922 0.1248 -0.0000
vn -0.9936 0.1131 -0.0000
vn -0.0000 -1.0000 -0.0000
vn -0.0000 0.5464 -0.8375
vn -0.0000 0.5099 -0.8602
vn -0.0000 0.5076 -0.8616
vn -0.0000 0.9993 -0.0375
vn -0.0000 0.9993 0.0375
vn -0.7019 0.4189 -0.5760
vn 0.6886 0.3834 0.6155
vn -0.9963 0.0854 -0.0039
vn 0.4026 0.9154 -0.0000
vn 0.4057 0.9140 -0.0000
vn 0.3263 0.9453 -0.0000
vn 0.7636 0.6457 -0.0000
vn 0.6298 0.7768 -0.0000
vn 0.6255 0.7803 -0.0000
vn -0.0000 0.4678 -0.8839
vn -0.9960 0.0899 -0.0000
vn -0.0000 0.4678 0.8839
vn -0.0000 0.9972 0.0750
vn -0.0000 -0.9569 -0.2904
vn -0.9963 0.0854 0.0039
vn -0.0000 0.9972 -0.0750
vn -0.0000 -0.9569 0.2904
vn 0.6886 0.3834 -0.6155
vn 0.8029 -0.5962 -0.0000
vn 0.8029 0.5962 -0.0000
vn -0.9963 0.0855 -0.0000
vn -0.7884 0.6152 -0.0000
vn -0.7019 0.4189 0.5760
vn -0.8881 -0.4597 -0.0000
vn -0.4026 -0.9154 -0.0000
vn -0.3263 -0.9453 -0.0000
vn -0.4057 -0.9140 -0.0000
vn -0.7636 -0.6457 -0.0000
vn -0.6255 -0.7803 -0.0000
vn -0.6298 -0.7768 -0.0000
vt 0.625000 0.750000
vt 0.375000 0.750000
vt 0.625000 1.000000
vt 0.375000 1.000000
vt 0.375000 0.000000
vt 0.625000 0.000000
vt 0.625000 0.250000
vt 0.375000 0.250000
vt 0.125000 0.500000
vt 0.375000 0.500000
vt 0.125000 0.750000
vt 0.625000 0.500000
vt 0.875000 0.500000
vt 0.875000 0.750000
vt 0.603857 0.535324
vt 0.396143 0.517365
vt 0.396143 0.732635
vt 0.603857 0.714676
vt 0.603857 0.535324
vt 0.603857 0.714676
vt 0.603857 0.714676
s 1
usemtl std_tent
f 23/1/1 9/1/1 27/1/1 31/1/1
f 16/2/2 15/1/3 7/3/4 8/4/2
f 8/5/5 7/6/6 5/7/6 6/8/5
f 6/9/7 14/10/7 16/2/7 8/11/7
f 6/8/8 5/7/9 13/12/10 14/10/8
f 11/12/11 12/13/11 10/14/12 9/1/12
f 12/7/13 25/7/13 42/7/13 40/7/13
f 9/1/14 23/1/14 37/1/14 36/1/14
f 10/6/15 24/6/15 33/6/15 28/6/15
f 1/15/1 2/16/1 14/10/1 13/12/1
f 4/17/1 3/18/1 15/1/1 16/2/1
f 3/18/1 1/15/1 13/12/1 15/1/1
f 19/19/16 22/20/17 18/18/18 17/15/18
f 1/15/19 3/18/19 21/21/20 20/19/21
f 20/19/21 21/21/20 22/20/17 19/19/16
f 13/12/10 5/7/9 25/7/22 26/12/22
f 15/1/1 13/12/1 26/12/1 23/1/1
f 5/7/6 7/6/6 24/6/23 25/7/23
f 7/3/4 15/1/3 23/1/24 24/3/24
f 33/3/24 31/1/24 27/1/24 28/3/24
f 32/12/22 34/7/22 29/7/22 30/12/22
f 9/1/12 10/14/12 28/14/25 27/1/25
f 26/12/26 25/7/26 34/7/26 32/12/26
f 11/12/1 26/12/1 32/12/1 30/12/1
f 25/7/27 12/7/27 29/7/27 34/7/27
f 12/13/11 11/12/11 30/12/28 29/13/28
f 24/3/29 23/1/29 31/1/29 33/3/29
f 37/1/1 38/12/1 35/12/1 36/1/1
f 26/12/30 11/12/30 35/12/30 38/12/30
f 23/1/31 26/12/31 38/12/31 37/1/31
f 11/12/32 9/1/32 36/1/32 35/12/32
f 42/7/33 41/6/33 39/6/33 40/7/33
f 10/14/34 12/13/34 40/13/34 39/14/34
f 24/6/35 10/6/35 39/6/35 41/6/35
f 25/7/36 24/6/36 41/6/36 42/7/36
f 47/19/37 45/15/38 46/18/38 50/20/39
f 43/15/40 48/19/41 49/21/42 44/18/40
f 48/19/41 47/19/37 50/20/39 49/21/42
o tent.002
v 4.186419 2.897377 1.150196
v 4.186419 0.007607 0.494754
v 4.186419 2.897377 2.476877
v 4.186419 0.007607 3.132319
vn 1.0000 -0.0000 -0.0000
vt 0.396143 0.732635
vt 0.396143 0.517365
vt 0.603857 0.535324
vt 0.603857 0.714676
s 1
usemtl std_tent
f 54/22/43 52/23/43 51/24/43 53/25/43
o wood.004
v 6.321192 -0.069952 0.891960
v 6.138444 1.817768 0.791523
v 6.333651 -0.069048 0.873887
v 6.155066 1.815052 0.769078
v 6.354028 -0.062174 0.869393
v 6.182807 1.814490 0.764884
v 6.370388 -0.053356 0.881111
v 6.205415 1.816409 0.781395
v 6.373146 -0.047761 0.902177
v 6.209648 1.819686 0.808941
v 6.360687 -0.048665 0.920251
v 6.193025 1.822401 0.831386
v 6.340310 -0.055539 0.924744
v 6.165285 1.822964 0.835581
v 6.323950 -0.064356 0.913026
v 6.142676 1.821045 0.819070
v 6.143071 1.812730 0.749388
v 6.115942 1.817161 0.786019
v 6.188344 1.811811 0.742541
v 6.225242 1.814944 0.769489
v 6.232150 1.820293 0.814446
v 6.205021 1.824724 0.851076
v 6.159747 1.825642 0.857923
v 6.122849 1.822509 0.830975
v 6.138485 1.836211 0.789323
v 6.205457 1.834852 0.779195
v 6.209689 1.838130 0.806740
v 6.142717 1.839488 0.816869
v 6.155108 1.833495 0.766878
v 6.182848 1.832933 0.762682
v 6.193066 1.840845 0.829185
v 6.165326 1.841407 0.833381
v 6.131263 1.836016 0.787557
v 6.211820 1.834382 0.775373
v 6.216911 1.838324 0.808508
v 6.136354 1.839958 0.820691
v 6.151258 1.832750 0.760559
v 6.184625 1.832073 0.755513
v 6.196916 1.841590 0.835505
v 6.163548 1.842267 0.840552
v 6.140090 1.966970 0.793135
v 6.187171 1.966015 0.786015
v 6.190147 1.968319 0.805381
v 6.143065 1.969274 0.812501
v 6.151776 1.965061 0.777356
v 6.171278 1.964665 0.774407
v 6.178461 1.970227 0.821160
v 6.158959 1.970623 0.824109
v 6.152475 1.902788 0.867750
v 6.206706 1.901687 0.859548
v 6.230928 1.889973 0.761819
v 6.239202 1.896379 0.815670
v 6.132500 1.887320 0.737742
v 6.186730 1.886220 0.729540
v 6.108278 1.899035 0.835471
v 6.100004 1.892628 0.781620
vn -0.8079 -0.1201 -0.5769
vn -0.1625 -0.0812 -0.9834
vn 0.5879 -0.0027 -0.8089
vn 0.9856 0.0672 -0.1554
vn 0.8097 0.0885 0.5802
vn 0.1656 0.0505 0.9849
vn 0.5924 -0.0968 -0.7998
vn -0.5833 -0.0270 0.8118
vn -0.9823 -0.0978 0.1600
vn 0.8057 0.0684 0.5884
vn -0.5924 0.0968 0.7998
vn 0.0022 0.9930 -0.1185
vn -0.0022 -0.9930 0.1185
vn -0.8057 -0.0684 -0.5884
vn -0.9886 0.0201 0.1495
vn 0.1508 0.1168 0.9816
vn 0.9886 -0.0200 -0.1495
vn -0.1508 -0.1168 -0.9816
vn -0.1222 0.4745 -0.8717
vn 0.8236 0.5344 -0.1901
vn 0.1376 0.5266 0.8389
vn -0.5406 0.4911 0.6831
vn 0.7039 0.5451 0.4554
vn 0.4808 0.5048 -0.7170
vn -0.6870 0.4579 -0.5642
vn -0.8825 0.4634 0.0805
vn -0.8680 -0.4596 0.1881
vn -0.7393 -0.4598 -0.4919
vn 0.5675 -0.3739 -0.7336
vn 0.7310 -0.3528 0.5841
vn -0.5088 -0.4286 0.7466
vn 0.1302 -0.3865 0.9130
vn 0.9328 -0.3456 -0.1022
vn -0.1439 -0.4234 -0.8944
vt 1.000000 0.500000
vt 1.000000 1.000000
vt 0.875000 1.000000
vt 0.875000 0.500000
vt 0.750000 1.000000
vt 0.750000 0.500000
vt 0.625000 1.000000
vt 0.625000 0.500000
vt 0.500000 1.000000
vt 0.500000 0.500000
vt 0.375000 1.000000
vt 0.375000 0.500000
vt 0.250000 1.000000
vt 0.250000 0.500000
vt 0.491101 1.000000
vt 0.767213 1.000000
vt 0.125000 1.000000
vt 0.125000 0.500000
vt 0.000000 1.000000
vt 0.000000 0.500000
vt 0.357787 1.000000
vt 0.429577 1.000000
vt 0.184735 1.000000
vt 0.267213 1.000000
vt 0.929577 1.000000
vt 0.857787 1.000000
vt 0.133899 1.000000
s 1
usemtl std_tent
f 55/26/44 72/27/44 71/28/44 57/29/44
f 57/29/45 71/28/45 73/30/45 59/31/45
f 59/31/46 73/30/46 74/32/46 61/33/46
f 61/33/47 74/32/47 75/34/47 63/35/47
f 63/35/48 75/34/48 76/36/48 65/37/48
f 65/37/49 76/36/49 77/38/49 67/39/49
f 62/40/50 60/41/50 84/41/50 80/40/50
f 67/39/51 77/38/51 78/42/51 69/43/51
f 69/43/52 78/42/52 72/44/52 55/45/52
f 66/46/53 64/47/53 81/47/53 85/46/53
f 70/48/54 68/49/54 86/49/54 82/48/54
f 56/50/55 58/51/55 71/28/55 72/27/55
f 58/51/55 60/41/55 73/30/55 71/28/55
f 60/41/55 62/40/55 74/32/55 73/30/55
f 62/40/55 64/47/55 75/34/55 74/32/55
f 64/47/55 66/46/55 76/36/55 75/34/55
f 66/46/55 68/49/55 77/38/55 76/36/55
f 68/49/55 70/48/55 78/42/55 77/38/55
f 70/48/55 56/52/55 72/44/55 78/42/55
f 80/40/56 84/41/56 92/41/56 88/40/56
f 85/46/56 81/47/56 89/47/56 93/46/56
f 82/48/56 86/49/56 94/49/56 90/48/56
f 58/51/57 56/50/57 79/50/57 83/51/57
f 56/52/58 70/48/58 82/48/58 79/52/58
f 68/49/59 66/46/59 85/46/59 86/49/59
f 64/47/60 62/40/60 80/40/60 81/47/60
f 60/41/61 58/51/61 83/51/61 84/41/61
f 108/41/62 107/51/62 99/51/62 100/41/62
f 106/47/63 105/40/63 96/40/63 97/47/63
f 103/49/64 104/46/64 101/46/64 102/49/64
f 83/51/56 79/50/56 87/50/56 91/51/56
f 79/52/56 82/48/56 90/48/56 87/52/56
f 86/49/56 85/46/56 93/46/56 94/49/56
f 81/47/56 80/40/56 88/40/56 89/47/56
f 84/41/56 83/51/56 91/51/56 92/41/56
f 99/51/55 95/50/55 96/40/55 100/41/55
f 97/47/55 96/40/55 95/52/55 98/48/55
f 101/46/55 97/47/55 98/48/55 102/49/55
f 109/48/65 103/49/65 102/49/65 98/48/65
f 104/46/66 106/47/66 97/47/66 101/46/66
f 105/40/67 108/41/67 100/41/67 96/40/67
f 107/51/68 110/50/68 95/50/68 99/51/68
f 110/52/69 109/48/69 98/48/69 95/52/69
f 87/52/70 90/48/70 109/48/70 110/52/70
f 91/51/71 87/50/71 110/50/71 107/51/71
f 88/40/72 92/41/72 108/41/72 105/40/72
f 93/46/73 89/47/73 106/47/73 104/46/73
f 90/48/74 94/49/74 103/49/74 109/48/74
f 94/49/75 93/46/75 104/46/75 103/49/75
f 89/47/76 88/40/76 105/40/76 106/47/76
f 92/41/77 91/51/77 107/51/77 108/41/77
o wood.005
v 5.976899 -0.069952 2.592887
v 6.159647 1.817768 2.693323
v 5.964440 -0.069048 2.610959
v 6.143025 1.815052 2.715767
v 5.944063 -0.062174 2.615454
v 6.115284 1.814490 2.719963
v 5.927703 -0.053356 2.603736
v 6.092676 1.816409 2.703451
v 5.924945 -0.047761 2.582669
v 6.088444 1.819686 2.675905
v 5.937404 -0.048665 2.564596
v 6.105066 1.822401 2.653461
v 5.957782 -0.055539 2.560101
v 6.132807 1.822964 2.649265
v 5.974141 -0.064356 2.571819
v 6.155415 1.821045 2.665776
v 6.155021 1.812730 2.735458
v 6.182149 1.817161 2.698828
v 6.109747 1.811811 2.742304
v 6.072849 1.814944 2.715357
v 6.065942 1.820293 2.670402
v 6.093071 1.824724 2.633770
v 6.138344 1.825642 2.626924
v 6.175242 1.822509 2.653871
v 6.159606 1.836211 2.695524
v 6.092635 1.834852 2.705652
v 6.088402 1.838130 2.678105
v 6.155374 1.839488 2.667977
v 6.142983 1.833495 2.717968
v 6.115243 1.832933 2.722163
v 6.105025 1.840845 2.655661
v 6.132766 1.841407 2.651465
v 6.166828 1.836016 2.697289
v 6.086272 1.834382 2.709472
v 6.081181 1.838324 2.676339
v 6.161737 1.839958 2.664155
v 6.146834 1.832750 2.724287
v 6.113466 1.832073 2.729333
v 6.101175 1.841590 2.649341
v 6.134543 1.842267 2.644294
v 6.158001 1.966970 2.691711
v 6.110919 1.966015 2.698831
v 6.107944 1.968319 2.679466
v 6.155026 1.969274 2.672345
v 6.146315 1.965061 2.707490
v 6.126813 1.964665 2.710439
v 6.119630 1.970227 2.663687
v 6.139132 1.970623 2.660738
v 6.145616 1.902788 2.617097
v 6.091385 1.901687 2.625299
v 6.067163 1.889973 2.723027
v 6.058889 1.896379 2.669176
v 6.165591 1.887320 2.747104
v 6.111361 1.886220 2.755306
v 6.189814 1.899035 2.649376
v 6.198088 1.892628 2.703227
vn 0.8079 -0.1201 0.5769
vn 0.1625 -0.0812 0.9834
vn -0.5879 -0.0027 0.8089
vn -0.9856 0.0672 0.1554
vn -0.8096 0.0885 -0.5802
vn -0.1656 0.0505 -0.9849
vn -0.5924 -0.0968 0.7998
vn 0.5833 -0.0270 -0.8118
vn 0.9823 -0.0978 -0.1600
vn -0.8057 0.0684 -0.5884
vn 0.5924 0.0967 -0.7998
vn -0.0022 0.9930 0.1185
vn 0.0022 -0.9930 -0.1185
vn 0.8057 -0.0684 0.5884
vn 0.9886 0.0200 -0.1495
vn -0.1508 0.1168 -0.9816
vn -0.9886 -0.0200 0.1495
vn 0.1508 -0.1168 0.9816
vn 0.1222 0.4745 0.8717
vn -0.8236 0.5344 0.1901
vn -0.1376 0.5266 -0.8389
vn 0.5406 0.4911 -0.6831
vn -0.7039 0.5451 -0.4554
vn -0.4808 0.5048 0.7170
vn 0.6870 0.4579 0.5642
vn 0.8825 0.4634 -0.0804
vn 0.8680 -0.4596 -0.1880
vn 0.7393 -0.4598 0.4919
vn -0.5675 -0.3739 0.7336
vn -0.7310 -0.3528 -0.5841
vn 0.5089 -0.4286 -0.7466
vn -0.1302 -0.3865 -0.9131
vn -0.9328 -0.3456 0.1022
vn 0.1439 -0.4234 0.8944
vt 1.000000 0.500000
vt 1.000000 1.000000
vt 0.875000 1.000000
vt 0.875000 0.500000
vt 0.750000 1.000000
vt 0.750000 0.500000
vt 0.625000 1.000000
vt 0.625000 0.500000
vt 0.500000 1.000000
vt 0.500000 0.500000
vt 0.375000 1.000000
vt 0.375000 0.500000
vt 0.250000 1.000000
vt 0.250000 0.500000
vt 0.491101 1.000000
vt 0.767213 1.000000
vt 0.125000 1.000000
vt 0.125000 0.500000
vt 0.000000 1.000000
vt 0.000000 0.500000
vt 0.357787 1.000000
vt 0.429577 1.000000
vt 0.184735 1.000000
vt 0.267213 1.000000
vt 0.929577 1.000000
vt 0.857787 1.000000
vt 0.133899 1.000000
s 1
usemtl std_tent
f 111/53/78 128/54/78 127/55/78 113/56/78
f 113/56/79 127/55/79 129/57/79 115/58/79
f 115/58/80 129/57/80 130/59/80 117/60/80
f 117/60/81 130/59/81 131/61/81 119/62/81
f 119/62/82 131/61/82 132/63/82 121/64/82
f 121/64/83 132/63/83 133/65/83 123/66/83
f 118/67/84 116/68/84 140/68/84 136/67/84
f 123/66/85 133/65/85 134/69/85 125/70/85
f 125/70/86 134/69/86 128/71/86 111/72/86
f 122/73/87 120/74/87 137/74/87 141/73/87
f 126/75/88 124/76/88 142/76/88 138/75/88
f 112/77/89 114/78/89 127/55/89 128/54/89
f 114/78/89 116/68/89 129/57/89 127/55/89
f 116/68/89 118/67/89 130/59/89 129/57/89
f 118/67/89 120/74/89 131/61/89 130/59/89
f 120/74/89 122/73/89 132/63/89 131/61/89
f 122/73/89 124/76/89 133/65/89 132/63/89
f 124/76/89 126/75/89 134/69/89 133/65/89
f 126/75/89 112/79/89 128/71/89 134/69/89
f 136/67/90 140/68/90 148/68/90 144/67/90
f 141/73/90 137/74/90 145/74/90 149/73/90
f 138/75/90 142/76/90 150/76/90 146/75/90
f 114/78/91 112/77/91 135/77/91 139/78/91
f 112/79/92 126/75/92 138/75/92 135/79/92
f 124/76/93 122/73/93 141/73/93 142/76/93
f 120/74/94 118/67/94 136/67/94 137/74/94
f 116/68/95 114/78/95 139/78/95 140/68/95
f 164/68/96 163/78/96 155/78/96 156/68/96
f 162/74/97 161/67/97 152/67/97 153/74/97
f 159/76/98 160/73/98 157/73/98 158/76/98
f 139/78/90 135/77/90 143/77/90 147/78/90
f 135/79/90 138/75/90 146/75/90 143/79/90
f 142/76/90 141/73/90 149/73/90 150/76/90
f 137/74/90 136/67/90 144/67/90 145/74/90
f 140/68/90 139/78/90 147/78/90 148/68/90
f 155/78/89 151/77/89 152/67/89 156/68/89
f 153/74/89 152/67/89 151/79/89 154/75/89
f 157/73/89 153/74/89 154/75/89 158/76/89
f 165/75/99 159/76/99 158/76/99 154/75/99
f 160/73/100 162/74/100 153/74/100 157/73/100
f 161/67/101 164/68/101 156/68/101 152/67/101
f 163/78/102 166/77/102 151/77/102 155/78/102
f 166/79/103 165/75/103 154/75/103 151/79/103
f 143/79/104 146/75/104 165/75/104 166/79/104
f 147/78/105 143/77/105 166/77/105 163/78/105
f 144/67/106 148/68/106 164/68/106 161/67/106
f 149/73/107 145/74/107 162/74/107 160/73/107
f 146/75/108 150/76/108 159/76/108 165/75/108
f 150/76/109 149/73/109 160/73/109 159/76/109
f 145/74/110 144/67/110 161/67/110 162/74/110
f 148/68/111 147/78/111 163/78/111 164/68/111
