# Blender 4.4.3
# www.blender.org
mtllib normal tent.mtl
o normal_tent
v 3.364319 2.897377 11.420754
v 3.833729 0.007607 10.765312
v 3.364319 2.897377 12.747436
v 3.833729 0.007607 13.402878
v -1.733961 3.815051 10.979823
v -2.212917 0.007607 8.495929
v -1.733961 3.815051 13.188367
v -2.212917 0.007607 15.672261
v 2.980793 5.566400 12.177448
v -1.579931 5.566400 12.177448
v 2.980793 5.566400 11.990742
v -1.579931 5.566400 11.990742
v 3.114591 3.815051 10.979823
v 3.833729 0.007607 8.495929
v 3.114591 3.815051 13.188367
v 3.833729 0.007607 15.672261
v 2.980793 4.668441 12.736722
v -1.656947 4.668441 12.736722
v -1.656947 4.668441 11.431468
v 2.980793 4.668441 11.431468
v 2.980793 5.551053 12.381378
v -1.579931 5.551053 12.381378
v -1.579931 5.551053 11.786812
v 2.980793 5.551053 11.786812
v 2.980793 4.697662 12.833023
v 2.980793 4.697662 11.335167
v -1.656947 4.697662 12.833023
v -1.656947 4.697662 11.335167
v 3.154870 5.331965 12.039486
v 3.154870 5.331965 12.128704
v 3.154870 4.902876 12.395953
v 3.154870 4.902876 11.772237
v -1.725190 5.380252 12.135818
v -1.725190 5.380252 12.032372
v -1.767860 4.882737 12.445683
v -1.767860 4.882737 11.722507
vn 1.0000 -0.0000 -0.0000
vn -0.0000 0.5464 0.8375
vn -0.0000 0.5113 0.8594
vn -0.0000 0.5099 0.8602
vn -0.9922 0.1248 -0.0000
vn -0.9936 0.1131 -0.0000
vn -0.0000 -1.0000 -0.0000
vn -0.0000 0.5464 -0.8375
vn -0.0000 0.5099 -0.8602
vn -0.0000 0.5113 -0.8594
vn -0.0000 0.9993 -0.0375
vn -0.0000 0.9993 0.0375
vn -0.7019 0.4189 -0.5760
vn 0.6886 0.3834 0.6155
vn -0.9963 0.0854 -0.0039
vn 0.9790 0.2037 -0.0107
vn 0.9843 0.1756 -0.0155
vn 0.9820 0.1870 -0.0272
vn 0.9791 0.2030 -0.0085
vn 0.9843 0.1756 0.0155
vn 0.9790 0.2037 0.0107
vn 0.9791 0.2030 0.0085
vn 0.9820 0.1870 0.0272
vn -0.0000 0.4678 -0.8839
vn 0.9879 0.1549 -0.0000
vn -0.9960 0.0899 -0.0000
vn -0.0000 0.4678 0.8839
vn -0.0000 0.9972 0.0750
vn -0.0000 -0.9569 -0.2904
vn -0.9963 0.0854 0.0039
vn -0.0000 0.9972 -0.0750
vn -0.0000 -0.9569 0.2904
vn 0.6886 0.3834 -0.6155
vn 0.8029 -0.5962 -0.0000
vn 0.8029 0.5962 -0.0000
vn -0.9963 0.0855 -0.0000
vn -0.7884 0.6152 -0.0000
vn -0.7019 0.4189 0.5760
vn -0.8881 -0.4597 -0.0000
vt 0.625000 0.750000
vt 0.375000 0.750000
vt 0.625000 1.000000
vt 0.375000 1.000000
vt 0.375000 0.000000
vt 0.625000 0.000000
vt 0.625000 0.250000
vt 0.375000 0.250000
vt 0.125000 0.500000
vt 0.375000 0.500000
vt 0.125000 0.750000
vt 0.625000 0.500000
vt 0.875000 0.500000
vt 0.875000 0.750000
vt 0.603857 0.535324
vt 0.396143 0.517365
vt 0.396143 0.732635
vt 0.603857 0.714676
s 1
usemtl std_tent
f 17/1/1 9/1/1 21/1/1 25/1/1
f 16/2/2 15/1/3 7/3/4 8/4/2
f 8/5/5 7/6/6 5/7/6 6/8/5
f 6/9/7 14/10/7 16/2/7 8/11/7
f 6/8/8 5/7/9 13/12/10 14/10/8
f 11/12/11 12/13/11 10/14/12 9/1/12
f 12/7/13 19/7/13 36/7/13 34/7/13
f 9/1/14 17/1/14 31/1/14 30/1/14
f 10/6/15 18/6/15 27/6/15 22/6/15
f 1/15/16 2/16/17 14/10/18 13/12/19
f 4/17/20 3/18/21 15/1/22 16/2/23
f 3/18/21 1/15/16 13/12/19 15/1/22
f 2/16/17 1/15/16 3/18/21 4/17/20
f 13/12/10 5/7/9 19/7/24 20/12/24
f 15/1/22 13/12/19 20/12/25 17/1/25
f 5/7/6 7/6/6 18/6/26 19/7/26
f 7/3/4 15/1/3 17/1/27 18/3/27
f 27/3/27 25/1/27 21/1/27 22/3/27
f 26/12/24 28/7/24 23/7/24 24/12/24
f 9/1/12 10/14/12 22/14/28 21/1/28
f 20/12/29 19/7/29 28/7/29 26/12/29
f 11/12/1 20/12/1 26/12/1 24/12/1
f 19/7/30 12/7/30 23/7/30 28/7/30
f 12/13/11 11/12/11 24/12/31 23/13/31
f 18/3/32 17/1/32 25/1/32 27/3/32
f 31/1/1 32/12/1 29/12/1 30/1/1
f 20/12/33 11/12/33 29/12/33 32/12/33
f 17/1/34 20/12/34 32/12/34 31/1/34
f 11/12/35 9/1/35 30/1/35 29/12/35
f 36/7/36 35/6/36 33/6/36 34/7/36
f 10/14/37 12/13/37 34/13/37 33/14/37
f 18/6/38 10/6/38 33/6/38 35/6/38
f 19/7/39 18/6/39 35/6/39 36/7/39
