# Blender 4.4.3
# www.blender.org
mtllib normal tent.mtl
o normal_tent
v 2.170387 4.660834 0.652625
v 2.170387 5.558794 0.093352
v 2.170387 5.543447 0.297282
v 2.170387 4.690056 0.748927
v 3.023322 0.000001 3.588166
v 2.304185 3.807444 1.104272
v -2.544368 3.807444 1.104272
v -3.023323 0.000001 3.588166
v -3.023323 0.000001 3.588166
v -2.544368 3.807444 1.104272
v -2.544368 3.807444 -1.104272
v -3.023323 -0.000000 -3.588166
v -3.023323 -0.000000 -3.588166
v 3.023322 -0.000000 -3.588166
v 3.023322 0.000001 3.588166
v -3.023323 0.000001 3.588166
v -3.023323 -0.000000 -3.588166
v -2.544368 3.807444 -1.104272
v 2.304185 3.807444 -1.104272
v 3.023322 -0.000000 -3.588166
v 2.170387 5.558794 -0.093354
v -2.390337 5.558794 -0.093354
v -2.390337 5.558794 0.093352
v 2.170387 5.558794 0.093352
v -2.390337 5.558794 -0.093354
v -2.467353 4.660835 -0.652628
v -2.578267 4.875131 -0.361589
v -2.535596 5.372645 -0.051723
v 2.170387 5.558794 0.093352
v 2.170387 4.660834 0.652625
v 2.344463 4.895269 0.311856
v 2.344463 5.324359 0.044608
v -2.390337 5.558794 0.093352
v -2.467353 4.660834 0.652625
v -2.467353 4.690056 0.748927
v -2.390337 5.543447 0.297282
v 2.553912 2.889771 -0.663341
v 3.023322 -0.000000 -1.318783
v 3.023322 -0.000000 -3.588166
v 2.304185 3.807444 -1.104272
v 3.023322 0.000000 1.318783
v 2.553912 2.889771 0.663341
v 2.304185 3.807444 1.104272
v 3.023322 0.000001 3.588166
v 2.553912 2.889771 0.663341
v 2.304185 3.807444 1.104272
v 3.023322 -0.000000 -1.318783
v 2.553912 2.889771 -0.663341
v 2.553912 2.889771 0.663341
v 3.023322 0.000000 1.318783
v -2.467353 4.660835 -0.652628
v 2.170387 4.660835 -0.652628
v 2.304185 3.807444 1.104272
v 2.304185 3.807444 -1.104272
v 2.170387 4.660835 -0.652628
v 2.170387 4.660834 0.652625
v -2.467353 4.660834 0.652625
v -2.467353 4.660835 -0.652628
v 2.170387 4.660834 0.652625
v -2.467353 4.660834 0.652625
v -2.467353 4.690056 0.748927
v 2.170387 4.690056 0.748927
v 2.170387 5.543447 0.297282
v -2.390337 5.543447 0.297282
v 2.170387 4.690056 -0.748930
v -2.467353 4.690056 -0.748930
v -2.390337 5.543447 -0.297284
v 2.170387 5.543447 -0.297284
v -2.390337 5.543447 0.297282
v 2.170387 5.543447 0.297282
v 2.170387 4.660835 -0.652628
v -2.467353 4.660835 -0.652628
v -2.467353 4.690056 -0.748930
v 2.170387 4.690056 -0.748930
v 2.170387 5.558794 -0.093354
v 2.170387 4.660835 -0.652628
v 2.170387 4.690056 -0.748930
v 2.170387 5.543447 -0.297284
v -2.467353 4.660835 -0.652628
v -2.390337 5.558794 -0.093354
v -2.390337 5.543447 -0.297284
v -2.467353 4.690056 -0.748930
v 2.170387 5.543447 -0.297284
v -2.390337 5.543447 -0.297284
v -2.467353 4.660834 0.652625
v 2.170387 4.660834 0.652625
v 2.170387 4.690056 0.748927
v -2.467353 4.690056 0.748927
v 2.344463 4.895269 0.311856
v 2.344463 4.895269 -0.311859
v 2.344463 5.324359 -0.044609
v 2.344463 5.324359 0.044608
v 2.170387 4.660835 -0.652628
v 2.170387 5.558794 -0.093354
v 2.344463 5.324359 -0.044609
v 2.344463 4.895269 -0.311859
v 2.170387 4.660834 0.652625
v 2.170387 4.660835 -0.652628
v 2.344463 4.895269 -0.311859
v 2.344463 4.895269 0.311856
v 2.170387 5.558794 -0.093354
v 2.170387 5.558794 0.093352
v 2.344463 5.324359 0.044608
v 2.344463 5.324359 -0.044609
v -2.578267 4.875131 -0.361589
v -2.578267 4.875131 0.361587
v -2.535596 5.372645 0.051722
v -2.535596 5.372645 -0.051723
v -2.390337 5.558794 0.093352
v -2.390337 5.558794 -0.093354
v -2.535596 5.372645 -0.051723
v -2.535596 5.372645 0.051722
v -2.467353 4.660834 0.652625
v -2.390337 5.558794 0.093352
v -2.535596 5.372645 0.051722
v -2.578267 4.875131 0.361587
v -2.467353 4.660835 -0.652628
v -2.467353 4.660834 0.652625
v -2.578267 4.875131 0.361587
v -2.578267 4.875131 -0.361589
vn 1.0000 -0.0000 -0.0000
vn -0.0000 0.5464 0.8375
vn -0.0000 0.5113 0.8594
vn -0.0000 0.5099 0.8602
vn -0.9922 0.1248 -0.0000
vn -0.9936 0.1131 -0.0000
vn -0.0000 -1.0000 -0.0000
vn -0.0000 0.5464 -0.8375
vn -0.0000 0.5099 -0.8602
vn -0.0000 0.5113 -0.8594
vn -0.0000 0.9993 0.0375
vn -0.0000 0.9993 -0.0375
vn -0.7019 0.4189 -0.5760
vn 0.6886 0.3834 0.6155
vn 0.6886 0.3833 0.6155
vn -0.9963 0.0854 -0.0039
vn -0.9963 0.0853 -0.0039
vn 0.9791 0.2030 -0.0085
vn 0.9790 0.2038 -0.0108
vn 0.9843 0.1756 -0.0155
vn 0.9820 0.1870 -0.0271
vn 0.9820 0.1870 0.0272
vn 0.9843 0.1756 0.0155
vn 0.9790 0.2038 0.0108
vn 0.9791 0.2030 0.0085
vn 0.9790 0.2038 0.0107
vn 0.9790 0.2037 -0.0107
vn 0.9790 0.2037 0.0107
vn -0.0000 0.4678 -0.8839
vn 0.9879 0.1549 -0.0000
vn -0.9960 0.0899 -0.0000
vn -0.0000 0.4678 0.8839
vn -0.0000 0.9972 0.0750
vn -0.0000 -0.9569 -0.2904
vn -0.9963 0.0854 0.0039
vn -0.0000 0.9972 -0.0750
vn -0.0000 -0.9569 0.2904
vn 0.6886 0.3834 -0.6155
vn 0.6886 0.3833 -0.6155
vn 0.8029 -0.5962 -0.0000
vn 0.8029 0.5962 -0.0000
vn -0.9963 0.0855 -0.0000
vn -0.7884 0.6152 -0.0000
vn -0.7019 0.4189 0.5760
vn -0.8881 -0.4597 -0.0000
vt 0.026876 0.603589
vt 0.028289 0.597005
vt 0.094980 0.597004
vt 0.087757 0.608182
vt 0.449757 0.414056
vt 0.869283 0.414055
vt 0.829974 0.693894
vt 0.493573 0.693894
vt 0.001000 0.417815
vt 0.448030 0.417815
vt 0.286326 0.680920
vt 0.148751 0.680920
vt 0.447762 0.415821
vt 0.001000 0.415821
vt 0.001000 0.001000
vt 0.447762 0.001000
vt 0.449757 0.072786
vt 0.869283 0.072787
vt 0.825467 0.352625
vt 0.489067 0.352625
vt 0.812253 0.840408
vt 0.812253 0.855748
vt 0.575187 0.855748
vt 0.575187 0.840408
vt 0.416127 0.593972
vt 0.406347 0.581009
vt 0.472757 0.581009
vt 0.452922 0.593972
vt 0.407533 0.527100
vt 0.395977 0.510698
vt 0.462104 0.510698
vt 0.439132 0.527100
vt 0.367549 0.581795
vt 0.360358 0.570595
vt 0.427183 0.570595
vt 0.428588 0.577183
vt 0.313386 0.872029
vt 0.282295 0.812872
vt 0.324901 0.630220
vt 0.480188 0.630052
vt 0.397357 0.755103
vt 0.551495 0.755438
vt 0.585018 0.939469
vt 0.551329 0.999000
vt 0.162246 0.872622
vt 0.191450 0.813184
vt 0.011210 0.741663
vt 0.192471 0.741663
vt 0.147015 0.923608
vt 0.055841 0.923608
vt 0.496101 0.412060
vt 0.817875 0.412060
vt 0.028667 0.736219
vt 0.001000 0.676841
vt 0.138223 0.676841
vt 0.109766 0.736219
vt 0.175328 0.739668
vt 0.256635 0.739668
vt 0.501165 0.753329
vt 0.822939 0.753329
vt 0.453875 0.070791
vt 0.449757 0.004506
vt 0.738280 0.004506
vt 0.737607 0.070791
vt 0.565907 0.821609
vt 0.565234 0.755324
vt 0.853754 0.755324
vt 0.849635 0.821609
vt 0.812253 0.823604
vt 0.575187 0.823605
vt 0.804755 0.874547
vt 0.804755 0.883304
vt 0.577145 0.883304
vt 0.577145 0.874547
vt 0.008080 0.620037
vt 0.001000 0.608776
vt 0.067198 0.608776
vt 0.068548 0.615410
vt 0.408419 0.609412
vt 0.409757 0.602771
vt 0.476055 0.602771
vt 0.469016 0.614060
vt 0.575187 0.872552
vt 0.812253 0.872552
vt 0.241750 0.883071
vt 0.241750 0.874313
vt 0.469359 0.874313
vt 0.469360 0.883070
vt 0.432749 0.506201
vt 0.414502 0.479545
vt 0.457383 0.479545
vt 0.438883 0.506201
vt 0.023972 0.561982
vt 0.001000 0.545579
vt 0.067126 0.545579
vt 0.055570 0.561982
vt 0.406077 0.550049
vt 0.384618 0.529798
vt 0.464998 0.529798
vt 0.444486 0.550049
vt 0.432516 0.454366
vt 0.450658 0.451023
vt 0.450658 0.463858
vt 0.432516 0.460498
vt 0.048539 0.595010
vt 0.027393 0.563977
vt 0.077091 0.563977
vt 0.055648 0.595010
vt 0.451997 0.234720
vt 0.466723 0.231856
vt 0.466723 0.244642
vt 0.451997 0.241804
vt 0.366187 0.607113
vt 0.346351 0.594150
vt 0.412761 0.594150
vt 0.402981 0.607113
vt 0.389145 0.568600
vt 0.371390 0.552044
vt 0.452639 0.552044
vt 0.434161 0.568600
s 1
usemtl std_tent.001
f 4/1/1 1/2/1 2/3/1
f 2/3/1 3/4/1 4/1/1
f 8/5/2 5/6/2 6/7/3
f 6/7/3 7/8/4 8/5/2
f 12/9/5 9/10/5 10/11/6
f 10/11/6 11/12/6 12/9/5
f 16/13/7 13/14/7 14/15/7
f 14/15/7 15/16/7 16/13/7
f 20/17/8 17/18/8 18/19/9
f 18/19/9 19/20/10 20/17/8
f 24/21/11 21/22/12 22/23/12
f 22/23/12 23/24/11 24/21/11
f 28/25/13 25/26/13 26/27/13
f 26/27/13 27/28/13 28/25/13
f 32/29/14 29/30/14 30/31/14
f 30/31/14 31/32/15 32/29/14
f 36/33/16 33/34/16 34/35/17
f 34/35/17 35/36/16 36/33/16
f 40/37/18 37/38/19 38/39/20
f 38/39/20 39/40/21 40/37/18
f 44/41/22 41/42/23 42/43/24
f 42/43/24 43/44/25 44/41/22
f 46/45/25 45/46/26 37/38/19
f 37/38/19 40/37/18 46/45/25
f 50/47/23 47/48/20 48/49/27
f 48/49/27 49/50/28 50/47/23
f 52/51/29 19/20/10 18/19/9
f 18/19/9 51/52/29 52/51/29
f 56/53/30 53/54/25 54/55/18
f 54/55/18 55/56/30 56/53/30
f 58/57/31 11/12/6 10/11/6
f 10/11/6 57/58/31 58/57/31
f 60/59/32 7/8/4 6/7/3
f 6/7/3 59/60/32 60/59/32
f 64/61/32 61/62/32 62/63/32
f 62/63/32 63/64/32 64/61/32
f 68/65/29 65/66/29 66/67/29
f 66/67/29 67/68/29 68/65/29
f 70/69/33 24/21/11 23/24/11
f 23/24/11 69/70/33 70/69/33
f 74/71/34 71/72/34 72/73/34
f 72/73/34 73/74/34 74/71/34
f 78/75/1 75/76/1 76/77/1
f 76/77/1 77/78/1 78/75/1
f 82/79/35 79/80/35 80/81/35
f 80/81/35 81/82/35 82/79/35
f 84/83/36 22/23/12 21/22/12
f 21/22/12 83/84/36 84/83/36
f 88/85/37 85/86/37 86/87/37
f 86/87/37 87/88/37 88/85/37
f 92/89/1 89/90/1 90/91/1
f 90/91/1 91/92/1 92/89/1
f 96/93/38 93/94/38 94/95/39
f 94/95/39 95/96/39 96/93/38
f 100/97/40 97/98/40 98/99/40
f 98/99/40 99/100/40 100/97/40
f 104/101/41 101/102/41 102/103/41
f 102/103/41 103/104/41 104/101/41
f 108/105/42 105/106/42 106/107/42
f 106/107/42 107/108/42 108/105/42
f 112/109/43 109/110/43 110/111/43
f 110/111/43 111/112/43 112/109/43
f 116/113/44 113/114/44 114/115/44
f 114/115/44 115/116/44 116/113/44
f 120/117/45 117/118/45 118/119/45
f 118/119/45 119/120/45 120/117/45
