# Blender 4.4.3
# www.blender.org
mtllib rug1.mtl
o rug
v -1.580480 -0.000000 -2.175916
v -1.580480 0.000000 2.175916
v 1.580480 0.000000 2.175916
v 1.580480 -0.000000 -2.175916
v -1.580480 0.087496 -2.175916
v -1.580480 0.087497 2.175916
v 1.580480 0.087497 2.175916
v 1.580480 0.087496 -2.175916
vn -0.0000 -0.0000 -1.0000
vn -0.0000 1.0000 -0.0000
vn -1.0000 -0.0000 -0.0000
vn -0.0000 -0.0000 1.0000
vn 1.0000 -0.0000 -0.0000
vt 0.000029 0.840523
vt 0.003048 0.843882
vt 0.003097 0.982671
vt 0.000000 0.985975
vt 0.192852 0.843836
vt 0.192933 0.982621
vt 0.195948 0.840533
vt 0.195953 0.985980
s 1
usemtl objs
f 1/1/1 5/2/1 8/3/1 4/4/1
f 5/2/2 6/5/2 7/6/2 8/3/2
f 2/7/3 6/5/3 5/2/3 1/1/3
f 3/8/4 7/6/4 6/5/4 2/7/4
f 4/4/5 8/3/5 7/6/5 3/8/5
