# Blender 4.4.3
# www.blender.org
mtllib rug1.mtl
o rug
v -1.580480 -0.000000 -2.175916
v -1.580480 0.000000 2.175916
v 1.580480 0.000000 2.175916
v 1.580480 -0.000000 -2.175916
v 1.902901 0.000000 2.175916
v 1.902901 -0.000000 -2.175916
v -1.922300 -0.000000 -2.175916
v -1.922300 0.000000 2.175916
v -1.580480 0.087496 -2.175916
v -1.580480 0.087497 2.175916
v 1.580480 0.087497 2.175916
v 1.580480 0.087496 -2.175916
vn -0.0000 -0.0000 -1.0000
vn -0.0000 1.0000 -0.0000
vn -1.0000 -0.0000 -0.0000
vn -0.0000 -0.0000 1.0000
vn 1.0000 -0.0000 -0.0000
vt 0.000029 0.840523
vt 0.003048 0.843882
vt 0.003097 0.982671
vt 0.000000 0.985975
vt 0.195953 0.985980
vt 0.195879 0.999997
vt 0.000096 1.000000
vt 0.000110 0.825663
vt 0.195841 0.825663
vt 0.195948 0.840533
vt 0.192852 0.843836
vt 0.192933 0.982621
s 1
usemtl objs
f 1/1/1 9/2/1 12/3/1 4/4/1
f 3/5/2 5/6/2 6/7/2 4/4/2
f 1/1/2 7/8/2 8/9/2 2/10/2
f 9/2/2 10/11/2 11/12/2 12/3/2
f 2/10/3 10/11/3 9/2/3 1/1/3
f 3/5/4 11/12/4 10/11/4 2/10/4
f 4/4/5 12/3/5 11/12/5 3/5/5
